<!-- icon666.com - MILLIONS vector ICONS FREE --><svg xmlns="http://www.w3.org/2000/svg" version="1.1" viewBox="0 0 512 512"><g id="surface1"><path d="M 95.335938 291.332031 C 133.460938 291.332031 167.660156 308.449219 190.664062 335.398438 L 190.664062 95.332031 C 190.664062 42.765625 147.898438 0 95.335938 0 C 42.765625 0 0 42.765625 0 95.332031 L 0 335.398438 C 23.007812 308.449219 57.207031 291.332031 95.335938 291.332031 Z M 95.335938 291.332031 " style=" stroke:none;fill-rule:nonzero;fill:rgb(0%,0%,0%);fill-opacity:1;"></path><path d="M 456.835938 80.332031 L 219.765625 80.332031 C 220.355469 85.253906 220.664062 90.257812 220.664062 95.332031 L 220.664062 416.664062 C 220.664062 454.792969 203.546875 488.992188 176.601562 512 L 456.835938 512 C 487.253906 512 512 487.253906 512 456.832031 L 512 135.5 C 512 105.082031 487.253906 80.332031 456.835938 80.332031 Z M 456.835938 80.332031 " style=" stroke:none;fill-rule:nonzero;fill:rgb(0%,0%,0%);fill-opacity:1;"></path><path d="M 95.335938 321.332031 C 42.765625 321.332031 0 364.101562 0 416.664062 C 0 469.234375 42.765625 512 95.335938 512 C 147.898438 512 190.664062 469.234375 190.664062 416.664062 C 190.664062 364.101562 147.898438 321.332031 95.335938 321.332031 Z M 95.335938 321.332031 " style=" stroke:none;fill-rule:nonzero;fill:rgb(0%,0%,0%);fill-opacity:1;"></path></g></svg>